<svg xmlns="http://www.w3.org/2000/svg" xmlns:xlink="http://www.w3.org/1999/xlink" viewBox="0 0 152 152" width="152" height="152" preserveAspectRatio="xMidYMid meet" style="width: 100%; height: 100%; transform: translate3d(0px, 0px, 0px); content-visibility: visible;"><defs><clipPath id="__lottie_element_105"><rect width="152" height="152" x="0" y="0"></rect></clipPath><clipPath id="__lottie_element_107"><path d="M0,0 L800,0 L800,600 L0,600z"></path></clipPath><g id="__lottie_element_110"><g transform="matrix(1,0,0,1,187.81199645996094,127.81199645996094)" opacity="1" style="display: block;"><g opacity="1" transform="matrix(1,0,0,1,-111.81199645996094,-51.8120002746582)"><path fill="rgb(27,27,27)" fill-opacity="1" d=" M0,-75 C41.39250183105469,-75 75,-41.39250183105469 75,0 C75,41.39250183105469 41.39250183105469,75 0,75 C-41.39250183105469,75 -75,41.39250183105469 -75,0 C-75,-41.39250183105469 -41.39250183105469,-75 0,-75z"></path></g></g></g><mask id="__lottie_element_110_1" mask-type="alpha"><use xlink:href="#__lottie_element_110"></use></mask><g id="__lottie_element_116"><g transform="matrix(0.5,0.8660253882408142,-0.8660253882408142,0.5,400.30694580078125,300.49993896484375)" opacity="1" style="display: block;"><g opacity="1" transform="matrix(1,0,0,1,-0.3070000112056732,-47.00600051879883)"><path fill="rgb(42,42,42)" fill-opacity="1" d=" M80,-28.5 C80,-28.5 80,28.5 80,28.5 C80,28.5 -80,28.5 -80,28.5 C-80,28.5 -80,-28.5 -80,-28.5 C-80,-28.5 80,-28.5 80,-28.5z"></path><path stroke-linecap="butt" stroke-linejoin="miter" fill-opacity="0" stroke-miterlimit="4" stroke="rgb(255,0,251)" stroke-opacity="1" stroke-width="10" d=" M80,-28.5 C80,-28.5 80,28.5 80,28.5 C80,28.5 -80,28.5 -80,28.5 C-80,28.5 -80,-28.5 -80,-28.5 C-80,-28.5 80,-28.5 80,-28.5z"></path></g></g></g><g id="__lottie_element_122"><g transform="matrix(-0.5,0.8660253882408142,-0.8660253882408142,-0.5,400.68212890625,300.49993896484375)" opacity="1" style="display: block;"><g opacity="1" transform="matrix(1,0,0,1,-0.3070000112056732,-47.00600051879883)"><path fill="rgb(59,59,59)" fill-opacity="1" d=" M80,-28.5 C80,-28.5 80,28.5 80,28.5 C80,28.5 -80,28.5 -80,28.5 C-80,28.5 -80,-28.5 -80,-28.5 C-80,-28.5 80,-28.5 80,-28.5z"></path><path stroke-linecap="butt" stroke-linejoin="miter" fill-opacity="0" stroke-miterlimit="4" stroke="rgb(255,0,251)" stroke-opacity="1" stroke-width="10" d=" M80,-28.5 C80,-28.5 80,28.5 80,28.5 C80,28.5 -80,28.5 -80,28.5 C-80,28.5 -80,-28.5 -80,-28.5 C-80,-28.5 80,-28.5 80,-28.5z"></path></g></g></g><g id="__lottie_element_128"><g transform="matrix(-1,0,0,-1,400.3070068359375,300.5)" opacity="1" style="display: block;"><g opacity="1" transform="matrix(1,0,0,1,-0.3070000112056732,-47.00600051879883)"><path fill="rgb(71,71,71)" fill-opacity="1" d=" M80,-28.5 C80,-28.5 80,28.5 80,28.5 C80,28.5 -80,28.5 -80,28.5 C-80,28.5 -80,-28.5 -80,-28.5 C-80,-28.5 80,-28.5 80,-28.5z"></path><path stroke-linecap="butt" stroke-linejoin="miter" fill-opacity="0" stroke-miterlimit="4" stroke="rgb(255,0,251)" stroke-opacity="1" stroke-width="10" d=" M80,-28.5 C80,-28.5 80,28.5 80,28.5 C80,28.5 -80,28.5 -80,28.5 C-80,28.5 -80,-28.5 -80,-28.5 C-80,-28.5 80,-28.5 80,-28.5z"></path></g></g></g><g id="__lottie_element_134"><g transform="matrix(-0.5,-0.8660253882408142,0.8660253882408142,-0.5,400.3072814941406,300.49993896484375)" opacity="1" style="display: block;"><g opacity="1" transform="matrix(1,0,0,1,-0.3070000112056732,-47.00600051879883)"><path fill="rgb(84,84,84)" fill-opacity="1" d=" M80,-28.5 C80,-28.5 80,28.5 80,28.5 C80,28.5 -80,28.5 -80,28.5 C-80,28.5 -80,-28.5 -80,-28.5 C-80,-28.5 80,-28.5 80,-28.5z"></path><path stroke-linecap="butt" stroke-linejoin="miter" fill-opacity="0" stroke-miterlimit="4" stroke="rgb(255,0,251)" stroke-opacity="1" stroke-width="10" d=" M80,-28.5 C80,-28.5 80,28.5 80,28.5 C80,28.5 -80,28.5 -80,28.5 C-80,28.5 -80,-28.5 -80,-28.5 C-80,-28.5 80,-28.5 80,-28.5z"></path></g></g></g><g id="__lottie_element_140"><g transform="matrix(0.5,-0.8660253882408142,0.8660253882408142,0.5,400.30718994140625,300.5005187988281)" opacity="1" style="display: block;"><g opacity="1" transform="matrix(1,0,0,1,-0.3070000112056732,-47.00600051879883)"><path fill="rgb(98,98,98)" fill-opacity="1" d=" M80,-28.5 C80,-28.5 80,28.5 80,28.5 C80,28.5 -80,28.5 -80,28.5 C-80,28.5 -80,-28.5 -80,-28.5 C-80,-28.5 80,-28.5 80,-28.5z"></path><path stroke-linecap="butt" stroke-linejoin="miter" fill-opacity="0" stroke-miterlimit="4" stroke="rgb(255,0,251)" stroke-opacity="1" stroke-width="10" d=" M80,-28.5 C80,-28.5 80,28.5 80,28.5 C80,28.5 -80,28.5 -80,28.5 C-80,28.5 -80,-28.5 -80,-28.5 C-80,-28.5 80,-28.5 80,-28.5z"></path></g></g></g><g id="__lottie_element_146"><g transform="matrix(1,0,0,1,400.3070068359375,300.5)" opacity="1" style="display: block;"><g opacity="1" transform="matrix(1,0,0,1,-0.3070000112056732,-47.00600051879883)"><path fill="rgb(26,26,26)" fill-opacity="1" d=" M80,-28.5 C80,-28.5 80,28.5 80,28.5 C80,28.5 -80,28.5 -80,28.5 C-80,28.5 -80,-28.5 -80,-28.5 C-80,-28.5 80,-28.5 80,-28.5z"></path><path stroke-linecap="butt" stroke-linejoin="miter" fill-opacity="0" stroke-miterlimit="4" stroke="rgb(255,0,251)" stroke-opacity="1" stroke-width="10" d=" M80,-28.5 C80,-28.5 80,28.5 80,28.5 C80,28.5 -80,28.5 -80,28.5 C-80,28.5 -80,-28.5 -80,-28.5 C-80,-28.5 80,-28.5 80,-28.5z"></path></g></g></g><filter id="__lottie_element_149" filterUnits="objectBoundingBox" x="0%" y="0%" width="100%" height="100%"><feComponentTransfer in="SourceGraphic"><feFuncA type="table" tableValues="1.0 0.0"></feFuncA></feComponentTransfer></filter><mask id="__lottie_element_146_2" mask-type="alpha"><g filter="url(#__lottie_element_149)"><rect width="800" height="600" x="0" y="0" fill="#ffffff" opacity="0"></rect><use xlink:href="#__lottie_element_146"></use></g></mask><filter id="__lottie_element_150" filterUnits="objectBoundingBox" x="0%" y="0%" width="100%" height="100%"><feComponentTransfer in="SourceGraphic"><feFuncA type="table" tableValues="1.0 0.0"></feFuncA></feComponentTransfer></filter><mask id="__lottie_element_140_2" mask-type="alpha"><g filter="url(#__lottie_element_150)"><rect width="800" height="600" x="0" y="0" fill="#ffffff" opacity="0"></rect><use xlink:href="#__lottie_element_140"></use></g></mask><filter id="__lottie_element_151" filterUnits="objectBoundingBox" x="0%" y="0%" width="100%" height="100%"><feComponentTransfer in="SourceGraphic"><feFuncA type="table" tableValues="1.0 0.0"></feFuncA></feComponentTransfer></filter><mask id="__lottie_element_134_2" mask-type="alpha"><g filter="url(#__lottie_element_151)"><rect width="800" height="600" x="0" y="0" fill="#ffffff" opacity="0"></rect><use xlink:href="#__lottie_element_134"></use></g></mask><filter id="__lottie_element_152" filterUnits="objectBoundingBox" x="0%" y="0%" width="100%" height="100%"><feComponentTransfer in="SourceGraphic"><feFuncA type="table" tableValues="1.0 0.0"></feFuncA></feComponentTransfer></filter><mask id="__lottie_element_128_2" mask-type="alpha"><g filter="url(#__lottie_element_152)"><rect width="800" height="600" x="0" y="0" fill="#ffffff" opacity="0"></rect><use xlink:href="#__lottie_element_128"></use></g></mask><filter id="__lottie_element_153" filterUnits="objectBoundingBox" x="0%" y="0%" width="100%" height="100%"><feComponentTransfer in="SourceGraphic"><feFuncA type="table" tableValues="1.0 0.0"></feFuncA></feComponentTransfer></filter><mask id="__lottie_element_122_2" mask-type="alpha"><g filter="url(#__lottie_element_153)"><rect width="800" height="600" x="0" y="0" fill="#ffffff" opacity="0"></rect><use xlink:href="#__lottie_element_122"></use></g></mask><filter id="__lottie_element_154" filterUnits="objectBoundingBox" x="0%" y="0%" width="100%" height="100%"><feComponentTransfer in="SourceGraphic"><feFuncA type="table" tableValues="1.0 0.0"></feFuncA></feComponentTransfer></filter><mask id="__lottie_element_116_2" mask-type="alpha"><g filter="url(#__lottie_element_154)"><rect width="800" height="600" x="0" y="0" fill="#ffffff" opacity="0"></rect><use xlink:href="#__lottie_element_116"></use></g></mask></defs><g clip-path="url(#__lottie_element_105)"><g mask="url(#__lottie_element_110_1)" style="display: block;"><g clip-path="url(#__lottie_element_107)" transform="matrix(1,0,0,1,-324,-224)" opacity="1"><g mask="url(#__lottie_element_116_2)" style="display: block;"><g transform="matrix(1,0,0,1,400.3070068359375,300.5)" opacity="1"><g opacity="1" transform="matrix(1,0,0,1,-0.3070000112056732,-47.00600051879883)"><path class="aperture-color" fill="rgb(243,246,250)" fill-opacity="1" d=" M80,-28.5 C80,-28.5 80,28.5 80,28.5 C80,28.5 -80,28.5 -80,28.5 C-80,28.5 -80,-28.5 -80,-28.5 C-80,-28.5 80,-28.5 80,-28.5z"></path></g></g></g><g mask="url(#__lottie_element_122_2)" style="display: block;"><g transform="matrix(0.5,0.8660253882408142,-0.8660253882408142,0.5,400.30694580078125,300.49993896484375)" opacity="1"><g opacity="1" transform="matrix(1,0,0,1,-0.3070000112056732,-47.00600051879883)"><path class="aperture-color" fill="rgb(243,246,250)" fill-opacity="1" d=" M80,-28.5 C80,-28.5 80,28.5 80,28.5 C80,28.5 -80,28.5 -80,28.5 C-80,28.5 -80,-28.5 -80,-28.5 C-80,-28.5 80,-28.5 80,-28.5z"></path></g></g></g><g mask="url(#__lottie_element_128_2)" style="display: block;"><g transform="matrix(-0.5,0.8660253882408142,-0.8660253882408142,-0.5,400.68212890625,300.49993896484375)" opacity="1"><g opacity="1" transform="matrix(1,0,0,1,-0.3070000112056732,-47.00600051879883)"><path class="aperture-color" fill="rgb(243,246,250)" fill-opacity="1" d=" M80,-28.5 C80,-28.5 80,28.5 80,28.5 C80,28.5 -80,28.5 -80,28.5 C-80,28.5 -80,-28.5 -80,-28.5 C-80,-28.5 80,-28.5 80,-28.5z"></path></g></g></g><g mask="url(#__lottie_element_134_2)" style="display: block;"><g transform="matrix(-1,0,0,-1,400.3070068359375,300.5)" opacity="1"><g opacity="1" transform="matrix(1,0,0,1,-0.3070000112056732,-47.00600051879883)"><path class="aperture-color" fill="rgb(243,246,250)" fill-opacity="1" d=" M80,-28.5 C80,-28.5 80,28.5 80,28.5 C80,28.5 -80,28.5 -80,28.5 C-80,28.5 -80,-28.5 -80,-28.5 C-80,-28.5 80,-28.5 80,-28.5z"></path></g></g></g><g mask="url(#__lottie_element_140_2)" style="display: block;"><g transform="matrix(-0.5,-0.8660253882408142,0.8660253882408142,-0.5,400.3072814941406,300.49993896484375)" opacity="1"><g opacity="1" transform="matrix(1,0,0,1,-0.3070000112056732,-47.00600051879883)"><path class="aperture-color" fill="rgb(243,246,250)" fill-opacity="1" d=" M80,-28.5 C80,-28.5 80,28.5 80,28.5 C80,28.5 -80,28.5 -80,28.5 C-80,28.5 -80,-28.5 -80,-28.5 C-80,-28.5 80,-28.5 80,-28.5z"></path></g></g></g><g mask="url(#__lottie_element_146_2)" style="display: block;"><g transform="matrix(0.5,-0.8660253882408142,0.8660253882408142,0.5,400.30718994140625,300.5005187988281)" opacity="1"><g opacity="1" transform="matrix(1,0,0,1,-0.3070000112056732,-47.00600051879883)"><path class="aperture-color" fill="rgb(243,246,250)" fill-opacity="1" d=" M80,-28.5 C80,-28.5 80,28.5 80,28.5 C80,28.5 -80,28.5 -80,28.5 C-80,28.5 -80,-28.5 -80,-28.5 C-80,-28.5 80,-28.5 80,-28.5z"></path></g></g></g></g></g></g></svg>